<svg width="627" height="289" viewBox="0 0 627 289" fill="none" xmlns="http://www.w3.org/2000/svg">
<mask id="path-1-inside-1_903_226" fill="white">
<path d="M600.006 0C600.27 14.7908 612.209 26.7294 627 26.9932V261.006C612.043 261.273 600 273.479 600 288.5C600 288.667 600.003 288.834 600.006 289H27.9941C27.9971 288.834 28 288.667 28 288.5C28 273.312 15.6878 261 0.5 261C0.332973 261 0.166319 261.003 0 261.006V26.9932C0.166325 26.9961 0.332967 27 0.5 27C15.5208 27 27.7274 14.9571 27.9941 0H600.006Z"/>
</mask>
<path d="M600.006 0C600.27 14.7908 612.209 26.7294 627 26.9932V261.006C612.043 261.273 600 273.479 600 288.5C600 288.667 600.003 288.834 600.006 289H27.9941C27.9971 288.834 28 288.667 28 288.5C28 273.312 15.6878 261 0.5 261C0.332973 261 0.166319 261.003 0 261.006V26.9932C0.166325 26.9961 0.332967 27 0.5 27C15.5208 27 27.7274 14.9571 27.9941 0H600.006Z" fill="#FCFDED"/>
<path d="M600.006 0L603.005 -0.0534839L602.953 -3H600.006V0ZM627 26.9932H630V24.0462L627.053 23.9936L627 26.9932ZM627 261.006L627.053 264.005L630 263.953V261.006H627ZM600.006 289V292H603.06L603.005 288.947L600.006 289ZM27.9941 289L24.9946 288.947L24.9402 292H27.9941V289ZM0 261.006H-3V264.06L0.0534839 264.005L0 261.006ZM0 26.9932L0.0534858 23.9936L-3 23.9392V26.9932H0ZM27.9941 0V-3H25.0472L24.9946 -0.0534839L27.9941 0ZM600.006 0L597.006 0.0534839C597.299 16.4594 610.541 29.7002 626.947 29.9927L627 26.9932L627.053 23.9936C613.878 23.7587 603.24 13.1222 603.005 -0.0534839L600.006 0ZM627 26.9932H624V261.006H627H630V26.9932H627ZM627 261.006L626.947 258.006C610.357 258.302 597 271.84 597 288.5H600H603C603 275.118 613.729 264.243 627.053 264.005L627 261.006ZM600 288.5H597C597 288.698 597.003 288.89 597.006 289.053L600.006 289L603.005 288.947C603.002 288.777 603 288.636 603 288.5H600ZM600.006 289V286H27.9941V289V292H600.006V289ZM27.9941 289L30.9937 289.053C30.9966 288.89 31 288.698 31 288.5H28H25C25 288.636 24.9976 288.777 24.9946 288.947L27.9941 289ZM28 288.5H31C31 271.655 17.3447 258 0.5 258V261V264C14.031 264 25 274.969 25 288.5H28ZM0.5 261V258C0.30227 258 0.109819 258.003 -0.0534839 258.006L0 261.006L0.0534839 264.005C0.222818 264.002 0.363676 264 0.5 264V261ZM0 261.006H3V26.9932H0H-3V261.006H0ZM0 26.9932L-0.0534858 29.9927C0.0906484 29.9953 0.298011 30 0.5 30V27V24C0.367923 24 0.242001 23.997 0.0534858 23.9936L0 26.9932ZM0.5 27V30C17.1599 30 30.6979 16.6432 30.9937 0.0534839L27.9941 0L24.9946 -0.0534839C24.757 13.271 13.8817 24 0.5 24V27ZM27.9941 0V3H600.006V0V-3H27.9941V0Z" fill="#636024" mask="url(#path-1-inside-1_903_226)"/>
</svg>
