<svg width="593" height="334" viewBox="0 0 593 334" fill="none" xmlns="http://www.w3.org/2000/svg">
<path d="M566.093 332.5H27.8477C24.8365 308.89 9.02791 301.059 1.5 300.094V36.799C25.5893 34.9472 30.6707 12.4948 30.2002 1.5H563.741C564.117 28.8133 582.404 36.0274 591.5 36.2203V300.673C572.68 303.914 566.721 323.241 566.093 332.5Z" fill="#FCFDED" stroke="#636024" stroke-width="3"/>
<path d="M556.041 319.469H37.8652C34.9663 298.276 19.7472 291.246 12.5 290.38V54.0363C35.6911 52.3741 40.5829 32.2199 40.13 22.3506H553.776C554.138 46.868 571.743 53.3437 580.5 53.5168V290.9C562.382 293.808 556.645 311.158 556.041 319.469Z" fill="#FCFDED" stroke="#636024" stroke-width="3"/>
</svg>
